<?xml version="1.0" encoding="UTF-8" standalone="no"?>
<!DOCTYPE svg PUBLIC "-//W3C//DTD SVG 1.1//EN"
 "http://www.w3.org/Graphics/SVG/1.1/DTD/svg11.dtd">
<!-- Generated by graphviz version 2.38.0 (20140413.2041)
 -->
<!-- Title: %12985 Pages: 1 -->
<svg width="446pt" height="98pt"
 viewBox="0.00 0.00 446.00 98.00" xmlns="http://www.w3.org/2000/svg" xmlns:xlink="http://www.w3.org/1999/xlink">
<g id="graph0" class="graph" transform="scale(1 1) rotate(0) translate(4 94)">
<title>%12985</title>
<polygon fill="white" stroke="none" points="-4,4 -4,-94 442,-94 442,4 -4,4"/>
<!-- S -->
<g id="node1" class="node"><title>S</title>
<ellipse fill="none" stroke="#7f7f7f" cx="21.5" cy="-72" rx="21.5" ry="18"/>
<text text-anchor="middle" x="21.5" y="-67.8" font-family="droid sans mono" font-size="14.00">S</text>
</g>
<!-- M -->
<g id="node2" class="node"><title>M</title>
<ellipse fill="none" stroke="#7f7f7f" cx="100.5" cy="-72" rx="21.5" ry="18"/>
<text text-anchor="middle" x="100.5" y="-67.8" font-family="droid sans mono" font-size="14.00">M</text>
</g>
<!-- S&#45;&gt;M -->
<g id="edge1" class="edge"><title>S&#45;&gt;M</title>
<path fill="none" stroke="#7f7f7f" d="M43.1346,-72C52.8014,-72 64.399,-72 74.5543,-72"/>
<polygon fill="#7f7f7f" stroke="#7f7f7f" points="74.8085,-73.4001 78.8085,-72 74.8084,-70.6001 74.8085,-73.4001"/>
</g>
<!-- G -->
<g id="node4" class="node"><title>G</title>
<ellipse fill="#ded8e0" stroke="#7f7f7f" cx="21.5" cy="-18" rx="21.5" ry="18"/>
<text text-anchor="middle" x="21.5" y="-13.8" font-family="droid sans mono" font-size="14.00">G</text>
</g>
<!-- S&#45;&gt;G -->
<g id="edge8" class="edge"><title>S&#45;&gt;G</title>
<path fill="none" stroke="#7f7f7f" d="M21.5,-53.7902C21.5,-49.2859 21.5,-44.7815 21.5,-40.2772"/>
<polygon fill="#7f7f7f" stroke="#7f7f7f" points="22.9001,-40.1406 21.5,-36.1406 20.1001,-40.1407 22.9001,-40.1406"/>
</g>
<!-- L -->
<g id="node3" class="node"><title>L</title>
<ellipse fill="none" stroke="#7f7f7f" cx="179.5" cy="-72" rx="21.5" ry="18"/>
<text text-anchor="middle" x="179.5" y="-67.8" font-family="droid sans mono" font-size="14.00">L</text>
</g>
<!-- M&#45;&gt;L -->
<g id="edge2" class="edge"><title>M&#45;&gt;L</title>
<path fill="none" stroke="#7f7f7f" d="M122.135,-72C131.801,-72 143.399,-72 153.554,-72"/>
<polygon fill="#7f7f7f" stroke="#7f7f7f" points="153.808,-73.4001 157.808,-72 153.808,-70.6001 153.808,-73.4001"/>
</g>
<!-- M&#45;&gt;G -->
<g id="edge10" class="edge"><title>M&#45;&gt;G</title>
<path fill="none" stroke="#7f7f7f" d="M83.566,-60.8255C71.4917,-52.3578 54.8409,-40.6806 41.9758,-31.6583"/>
<polygon fill="#7f7f7f" stroke="#7f7f7f" points="42.5333,-30.3393 38.4544,-29.1888 40.9255,-32.6318 42.5333,-30.3393"/>
</g>
<!-- R -->
<g id="node5" class="node"><title>R</title>
<ellipse fill="#ded8e0" stroke="#7f7f7f" cx="100.5" cy="-18" rx="21.5" ry="18"/>
<text text-anchor="middle" x="100.5" y="-13.8" font-family="droid sans mono" font-size="14.00">R</text>
</g>
<!-- M&#45;&gt;R -->
<g id="edge11" class="edge"><title>M&#45;&gt;R</title>
<path fill="none" stroke="#7f7f7f" d="M100.5,-53.7902C100.5,-49.2859 100.5,-44.7815 100.5,-40.2772"/>
<polygon fill="#7f7f7f" stroke="#7f7f7f" points="101.9,-40.1406 100.5,-36.1406 99.1001,-40.1407 101.9,-40.1406"/>
</g>
<!-- A -->
<g id="node6" class="node"><title>A</title>
<ellipse fill="#ded8e0" stroke="#7f7f7f" cx="179.5" cy="-18" rx="21.5" ry="18"/>
<text text-anchor="middle" x="179.5" y="-13.8" font-family="droid sans mono" font-size="14.00">A</text>
</g>
<!-- M&#45;&gt;A -->
<g id="edge9" class="edge"><title>M&#45;&gt;A</title>
<path fill="none" stroke="#7f7f7f" d="M117.454,-60.8112C129.534,-52.3399 146.185,-40.6624 159.046,-31.6431"/>
<polygon fill="#7f7f7f" stroke="#7f7f7f" points="160.095,-32.6175 162.566,-29.1745 158.487,-30.325 160.095,-32.6175"/>
</g>
<!-- L&#45;&gt;A -->
<g id="edge12" class="edge"><title>L&#45;&gt;A</title>
<path fill="none" stroke="#7f7f7f" d="M179.5,-53.7902C179.5,-49.2859 179.5,-44.7815 179.5,-40.2772"/>
<polygon fill="#7f7f7f" stroke="#7f7f7f" points="180.9,-40.1406 179.5,-36.1406 178.1,-40.1407 180.9,-40.1406"/>
</g>
<!-- G&#45;&gt;R -->
<g id="edge3" class="edge"><title>G&#45;&gt;R</title>
<path fill="none" stroke="#7f7f7f" d="M43.1346,-18C52.8014,-18 64.399,-18 74.5543,-18"/>
<polygon fill="#7f7f7f" stroke="#7f7f7f" points="74.8085,-19.4001 78.8085,-18 74.8084,-16.6001 74.8085,-19.4001"/>
</g>
<!-- R&#45;&gt;A -->
<g id="edge4" class="edge"><title>R&#45;&gt;A</title>
<path fill="none" stroke="#7f7f7f" d="M122.135,-18C131.801,-18 143.399,-18 153.554,-18"/>
<polygon fill="#7f7f7f" stroke="#7f7f7f" points="153.808,-19.4001 157.808,-18 153.808,-16.6001 153.808,-19.4001"/>
</g>
<!-- P -->
<g id="node7" class="node"><title>P</title>
<ellipse fill="#ded8e0" stroke="#7f7f7f" cx="258.5" cy="-18" rx="21.5" ry="18"/>
<text text-anchor="middle" x="258.5" y="-13.8" font-family="droid sans mono" font-size="14.00">P</text>
</g>
<!-- A&#45;&gt;P -->
<g id="edge5" class="edge"><title>A&#45;&gt;P</title>
<path fill="none" stroke="#7f7f7f" d="M201.135,-18C210.801,-18 222.399,-18 232.554,-18"/>
<polygon fill="#7f7f7f" stroke="#7f7f7f" points="232.808,-19.4001 236.808,-18 232.808,-16.6001 232.808,-19.4001"/>
</g>
<!-- H -->
<g id="node8" class="node"><title>H</title>
<ellipse fill="#ded8e0" stroke="#7f7f7f" cx="337.5" cy="-18" rx="21.5" ry="18"/>
<text text-anchor="middle" x="337.5" y="-13.8" font-family="droid sans mono" font-size="14.00">H</text>
</g>
<!-- P&#45;&gt;H -->
<g id="edge6" class="edge"><title>P&#45;&gt;H</title>
<path fill="none" stroke="#7f7f7f" d="M280.135,-18C289.801,-18 301.399,-18 311.554,-18"/>
<polygon fill="#7f7f7f" stroke="#7f7f7f" points="311.808,-19.4001 315.808,-18 311.808,-16.6001 311.808,-19.4001"/>
</g>
<!-- X -->
<g id="node9" class="node"><title>X</title>
<ellipse fill="#ded8e0" stroke="#7f7f7f" cx="416.5" cy="-18" rx="21.5" ry="18"/>
<text text-anchor="middle" x="416.5" y="-13.8" font-family="droid sans mono" font-size="14.00">S</text>
</g>
<!-- H&#45;&gt;X -->
<g id="edge7" class="edge"><title>H&#45;&gt;X</title>
<path fill="none" stroke="#7f7f7f" d="M359.135,-18C368.801,-18 380.399,-18 390.554,-18"/>
<polygon fill="#7f7f7f" stroke="#7f7f7f" points="390.808,-19.4001 394.808,-18 390.808,-16.6001 390.808,-19.4001"/>
</g>
</g>
</svg>
